<?xml version="1.0" encoding="UTF-8" standalone="no"?>
<svg
   xmlns:dc="http://purl.org/dc/elements/1.1/"
   xmlns:cc="http://creativecommons.org/ns#"
   xmlns:rdf="http://www.w3.org/1999/02/22-rdf-syntax-ns#"
   xmlns:svg="http://www.w3.org/2000/svg"
   xmlns="http://www.w3.org/2000/svg"
   id="svg8"
   version="1.1"
   viewBox="0 0 45.542244 11.553457"
   height="11.553457mm"
   width="45.542244mm">
  <defs
     id="defs2" />
  <metadata
     id="metadata5">
    <rdf:RDF>
      <cc:Work
         rdf:about="">
        <dc:format>image/svg+xml</dc:format>
        <dc:type
           rdf:resource="http://purl.org/dc/dcmitype/StillImage" />
        <dc:title></dc:title>
      </cc:Work>
    </rdf:RDF>
  </metadata>
  <g
     transform="translate(-76.987044,-36.453389)"
     id="layer1" />
  <g
     transform="translate(-76.987044,-36.453389)"
     id="layer2">
    <g
       id="g1147">
      <path
         id="path827"
         d="m 84.05948,-38.396961 a 1.99756,1.9435719 0 0 1 -1.994161,1.943569 1.99756,1.9435719 0 0 1 -2.000947,-1.936954 1.99756,1.9435719 0 0 1 1.98735,-1.950162 1.99756,1.9435719 0 0 1 2.007712,1.930317 l -1.997514,0.01323 z"
         style="opacity:1;fill:#c73c32;fill-opacity:1;stroke:none;stroke-width:2.7203784;stroke-linecap:round;stroke-linejoin:miter;stroke-miterlimit:4;stroke-dasharray:none;stroke-dashoffset:0;stroke-opacity:1;paint-order:markers fill stroke"
         transform="scale(1,-1)" />
      <path
         id="path827-0"
         d="m 85.625139,-46.063274 a 1.99756,1.9435719 0 0 1 -1.994161,1.943569 1.99756,1.9435719 0 0 1 -2.000948,-1.936955 1.99756,1.9435719 0 0 1 1.987351,-1.950161 1.99756,1.9435719 0 0 1 2.007711,1.930317 l -1.997513,0.01323 z"
         style="opacity:1;fill:#8bc44c;fill-opacity:1;stroke:none;stroke-width:2.7203784;stroke-linecap:round;stroke-linejoin:miter;stroke-miterlimit:4;stroke-dasharray:none;stroke-dashoffset:0;stroke-opacity:1;paint-order:markers fill stroke"
         transform="scale(1,-1)" />
      <path
         id="path827-0-9"
         d="m 80.982164,-43.147919 a 1.99756,1.9435719 0 0 1 -1.994161,1.943569 1.99756,1.9435719 0 0 1 -2.000948,-1.936954 1.99756,1.9435719 0 0 1 1.987351,-1.950161 1.99756,1.9435719 0 0 1 2.007712,1.930317 l -1.997514,0.01323 z"
         style="opacity:1;fill:#2cc0d4;fill-opacity:1;stroke:none;stroke-width:2.7203784;stroke-linecap:round;stroke-linejoin:miter;stroke-miterlimit:4;stroke-dasharray:none;stroke-dashoffset:0;stroke-opacity:1;paint-order:markers fill stroke"
         transform="scale(1,-1)" />
      <path
         id="path827-0-5"
         d="m 88.432519,-41.474285 a 1.99756,1.9435719 0 0 1 -1.99416,1.943569 1.99756,1.9435719 0 0 1 -2.000948,-1.936954 1.99756,1.9435719 0 0 1 1.987351,-1.950162 1.99756,1.9435719 0 0 1 2.007711,1.930317 l -1.997514,0.01323 z"
         style="opacity:1;fill:#eee935;fill-opacity:1;stroke:none;stroke-width:2.7203784;stroke-linecap:round;stroke-linejoin:miter;stroke-miterlimit:4;stroke-dasharray:none;stroke-dashoffset:0;stroke-opacity:1;paint-order:markers fill stroke"
         transform="scale(1,-1)" />
      <g
         id="flowRoot885"
         style="font-style:normal;font-weight:normal;font-size:21.33333397px;line-height:1.25;font-family:sans-serif;letter-spacing:0px;word-spacing:0px;fill:#e5e5e5;fill-opacity:0.99607843;stroke:none"
         transform="matrix(0.26458333,0,0,0.26458333,0.53988103,1.5767856)"
         aria-label="indie boost">
        <path
           id="path1153"
           style="font-style:normal;font-variant:normal;font-weight:normal;font-stretch:normal;font-size:25.33333397px;font-family:Webnar;-inkscape-font-specification:Webnar;fill:#e5e5e5;fill-opacity:0.99607843"
           d="m 343.55941,145.52743 c -0.20267,0 -0.32934,0.12666 -0.32934,0.32933 v 2.86267 c 0,0.20266 0.12667,0.32933 0.32934,0.32933 h 3.14133 c 0.20267,0 0.35467,-0.12667 0.35467,-0.32933 v -2.86267 c 0,-0.20267 -0.152,-0.32933 -0.35467,-0.32933 z m 0.0253,5.21866 c -0.20267,0 -0.32933,0.152 -0.32933,0.35467 v 11.98267 c 0,0.20266 0.12666,0.35466 0.32933,0.35466 h 3.09067 c 0.20266,0 0.32933,-0.152 0.32933,-0.35466 v -11.98267 c 0,-0.20267 -0.12667,-0.35467 -0.32933,-0.35467 z" />
        <path
           id="path1155"
           style="font-style:normal;font-variant:normal;font-weight:normal;font-stretch:normal;font-size:25.33333397px;font-family:Webnar;-inkscape-font-specification:Webnar;fill:#e5e5e5;fill-opacity:0.99607843"
           d="m 356.23795,150.41676 c -1.19067,0 -2.33067,0.50667 -3.648,1.64667 l -0.20267,-1.064 c -0.0507,-0.152 -0.152,-0.25334 -0.32933,-0.25334 h -2.71067 c -0.20267,0 -0.32933,0.152 -0.32933,0.35467 v 11.98267 c 0,0.20266 0.12666,0.35466 0.32933,0.35466 h 3.09067 c 0.20267,0 0.32933,-0.152 0.32933,-0.35466 v -8.892 c 0.70934,-0.456 1.49467,-0.76 2.128,-0.76 h 0.12667 c 1.19067,0 1.69733,0.63333 1.69733,1.92533 v 7.72667 c 0,0.20266 0.12667,0.35466 0.32934,0.35466 h 3.09066 c 0.20267,0 0.35467,-0.152 0.35467,-0.35466 v -8.56267 c 0,-2.60933 -1.596,-4.104 -3.952,-4.104 z" />
        <path
           id="path1157"
           style="font-style:normal;font-variant:normal;font-weight:normal;font-stretch:normal;font-size:25.33333397px;font-family:Webnar;-inkscape-font-specification:Webnar;fill:#e5e5e5;fill-opacity:0.99607843"
           d="m 370.58414,144.74209 c -0.17734,0 -0.32934,0.152 -0.32934,0.35467 v 6.33333 c -0.76,-0.684 -1.72266,-0.988 -2.736,-0.988 h -0.25333 c -2.83733,0 -4.99067,2.02667 -4.99067,5.72534 v 2.128 c 0,3.04 1.49467,5.472 4.58534,5.472 h 0.25333 c 1.41867,0 2.60933,-0.65867 3.39467,-1.52 l 0.152,0.93733 c 0.0253,0.152 0.152,0.25333 0.304,0.25333 h 2.736 c 0.20266,0 0.32933,-0.152 0.32933,-0.35466 v -17.98667 c 0,-0.20267 -0.12667,-0.35467 -0.32933,-0.35467 z m -2.40667,8.68934 c 0.55733,0 1.34267,0.27866 2.07733,0.86133 v 5.64933 c -0.70933,0.532 -1.444,0.81067 -2.07733,0.81067 h -0.12667 c -1.26666,0 -1.92533,-0.86133 -1.92533,-2.55867 v -2.204 c 0,-1.69733 0.65867,-2.55866 1.92533,-2.55866 z" />
        <path
           id="path1159"
           style="font-style:normal;font-variant:normal;font-weight:normal;font-stretch:normal;font-size:25.33333397px;font-family:Webnar;-inkscape-font-specification:Webnar;fill:#e5e5e5;fill-opacity:0.99607843"
           d="m 376.36409,145.52743 c -0.20266,0 -0.32933,0.12666 -0.32933,0.32933 v 2.86267 c 0,0.20266 0.12667,0.32933 0.32933,0.32933 h 3.14134 c 0.20266,0 0.35466,-0.12667 0.35466,-0.32933 v -2.86267 c 0,-0.20267 -0.152,-0.32933 -0.35466,-0.32933 z m 0.0253,5.21866 c -0.20267,0 -0.32934,0.152 -0.32934,0.35467 v 11.98267 c 0,0.20266 0.12667,0.35466 0.32934,0.35466 h 3.09066 c 0.20267,0 0.32934,-0.152 0.32934,-0.35466 v -11.98267 c 0,-0.20267 -0.12667,-0.35467 -0.32934,-0.35467 z" />
        <path
           id="path1161"
           style="font-style:normal;font-variant:normal;font-weight:normal;font-stretch:normal;font-size:25.33333397px;font-family:Webnar;-inkscape-font-specification:Webnar;fill:#e5e5e5;fill-opacity:0.99607843"
           d="m 387.44664,150.41676 c -3.14134,0 -5.776,2.204 -5.776,6.05467 v 1.368 c 0,3.97733 2.60933,5.90266 5.928,5.90266 h 0.25333 c 1.49467,0 3.52133,-0.456 4.30667,-0.81066 0.17733,-0.076 0.27866,-0.228 0.27866,-0.48134 v -2.30533 c 0,-0.20267 -0.152,-0.304 -0.32933,-0.25333 -1.39333,0.50666 -2.60933,0.912 -3.724,0.912 h -0.10133 c -1.57067,0 -2.76134,-0.81067 -2.736,-2.53334 l -0.0253,-0.40533 h 6.96667 c 0.304,0 0.55733,-0.25333 0.55733,-0.55733 v -1.34267 c 0,-3.67333 -2.33066,-5.548 -5.32,-5.548 z m 0.152,2.76133 c 1.368,0 1.976,0.836 1.92533,2.508 h -4.00267 c 0.076,-1.62133 0.78534,-2.508 1.976,-2.508 z" />
        <path
           id="path1163"
           style="font-style:normal;font-variant:normal;font-weight:normal;font-stretch:normal;font-size:25.33333397px;font-family:Webnar;-inkscape-font-specification:Webnar;fill:#e5e5e5;fill-opacity:0.99607843"
           d="m 407.16903,150.41676 c -1.24133,0 -2.33066,0.532 -3.14133,1.292 v -6.612 c 0,-0.20267 -0.12667,-0.35467 -0.32933,-0.35467 h -3.09067 c -0.20267,0 -0.32933,0.152 -0.32933,0.35467 v 16.74533 c 0,0.152 0.076,0.32934 0.228,0.40534 1.064,0.684 3.42,1.52 5.64933,1.52 h 0.25333 c 3.344,0 5.624,-2.052 5.624,-5.72534 v -2.15333 c 0,-3.01467 -1.57066,-5.44667 -4.61066,-5.44667 z m 1.01334,7.85333 c 0,1.672 -0.76,2.53334 -1.976,2.53334 h -0.10134 c -0.58266,0 -1.39333,-0.25334 -2.07733,-0.63334 v -5.928 c 0.73467,-0.55733 1.46933,-0.81066 2.10267,-0.81066 h 0.10133 c 1.24133,0 1.95067,0.86133 1.95067,2.55866 z" />
        <path
           id="path1165"
           style="font-style:normal;font-variant:normal;font-weight:normal;font-stretch:normal;font-size:25.33333397px;font-family:Webnar;-inkscape-font-specification:Webnar;fill:#e5e5e5;fill-opacity:0.99607843"
           d="m 419.58632,150.41676 c -3.16666,0 -5.90266,2.052 -5.90266,5.72533 v 1.87467 c 0,3.69867 2.736,5.72533 5.90266,5.72533 h 0.27867 c 3.14133,0 5.90267,-2.02666 5.90267,-5.72533 v -1.87467 c 0,-3.67333 -2.76134,-5.72533 -5.90267,-5.72533 z m 0.20267,3.01467 c 1.26667,0 2.128,0.86133 2.128,2.55866 v 2.204 c 0,1.69734 -0.86133,2.55867 -2.128,2.55867 h -0.152 c -1.26667,0 -2.10267,-0.86133 -2.10267,-2.55867 v -2.204 c 0,-1.69733 0.836,-2.55866 2.10267,-2.55866 z" />
        <path
           id="path1167"
           style="font-style:normal;font-variant:normal;font-weight:normal;font-stretch:normal;font-size:25.33333397px;font-family:Webnar;-inkscape-font-specification:Webnar;fill:#e5e5e5;fill-opacity:0.99607843"
           d="m 433.34153,150.41676 c -3.16666,0 -5.90266,2.052 -5.90266,5.72533 v 1.87467 c 0,3.69867 2.736,5.72533 5.90266,5.72533 h 0.27867 c 3.14133,0 5.90267,-2.02666 5.90267,-5.72533 v -1.87467 c 0,-3.67333 -2.76134,-5.72533 -5.90267,-5.72533 z m 0.20267,3.01467 c 1.26667,0 2.128,0.86133 2.128,2.55866 v 2.204 c 0,1.69734 -0.86133,2.55867 -2.128,2.55867 h -0.152 c -1.26667,0 -2.10267,-0.86133 -2.10267,-2.55867 v -2.204 c 0,-1.69733 0.836,-2.55866 2.10267,-2.55866 z" />
        <path
           id="path1169"
           style="font-style:normal;font-variant:normal;font-weight:normal;font-stretch:normal;font-size:25.33333397px;font-family:Webnar;-inkscape-font-specification:Webnar;fill:#e5e5e5;fill-opacity:0.99607843"
           d="m 445.85541,150.41676 c -2.356,0 -4.788,1.292 -4.788,4.00267 v 0.12666 c 0,2.584 1.92533,3.42 3.648,3.97734 l 0.86133,0.304 c 0.73467,0.228 1.292,0.40533 1.292,1.11466 v 0.076 c 0,0.684 -0.63333,1.064 -1.72266,1.064 h -0.12667 c -1.064,0 -2.07733,-0.32933 -3.36933,-0.86133 -0.17734,-0.076 -0.35467,0.0253 -0.35467,0.228 v 2.204 c 0,0.25333 0.10133,0.38 0.27867,0.456 0.684,0.32933 2.584,0.63333 3.74933,0.63333 h 0.17733 c 2.78667,0 5.11734,-1.368 5.11734,-3.952 v -0.152 c 0,-2.508 -1.444,-3.36933 -3.648,-4.104 l -0.836,-0.27866 c -0.70934,-0.228 -1.31734,-0.38 -1.31734,-1.08934 v -0.076 c 0,-0.65866 0.65867,-1.01333 1.57067,-1.01333 h 0.0507 c 0.96266,0 1.79866,0.32933 3.04,0.86133 0.17733,0.0507 0.35466,-0.0507 0.35466,-0.25333 v -2.204 c 0,-0.228 -0.10133,-0.38 -0.27866,-0.456 -0.63334,-0.27867 -2.128,-0.608 -3.44534,-0.608 z" />
        <path
           id="path1171"
           style="font-style:normal;font-variant:normal;font-weight:normal;font-stretch:normal;font-size:25.33333397px;font-family:Webnar;-inkscape-font-specification:Webnar;fill:#e5e5e5;fill-opacity:0.99607843"
           d="m 453.74912,148.01009 c -0.25333,0.0507 -0.40533,0.25334 -0.40533,0.50667 v 2.25467 l -1.34267,0.32933 c -0.17733,0.076 -0.32933,0.152 -0.32933,0.32933 v 1.9 c 0,0.20267 0.12666,0.32934 0.32933,0.32934 h 1.34267 v 6.48533 c 0,2.22933 1.39333,3.59733 3.85066,3.59733 h 0.25334 c 0.76,0 1.72266,-0.25333 2.584,-0.65866 0.152,-0.0507 0.228,-0.20267 0.228,-0.35467 v -2.128 c 0,-0.17733 -0.152,-0.304 -0.32934,-0.25333 -0.912,0.27866 -1.34266,0.40533 -1.62133,0.40533 h -0.12667 c -0.684,0 -1.064,-0.40533 -1.064,-1.31733 v -5.776 h 2.812 c 0.20267,0 0.32934,-0.12667 0.32934,-0.32934 v -2.22933 c 0,-0.20267 -0.12667,-0.35467 -0.32934,-0.35467 h -2.812 v -3.06533 c 0,-0.27867 -0.20266,-0.40533 -0.456,-0.35467 z" />
      </g>
      <path
         id="path827-7"
         d="m -78.53356,41.51173 a 1.99756,1.9435719 0 0 1 -1.994161,1.943569 1.99756,1.9435719 0 0 1 -2.000948,-1.936954 1.99756,1.9435719 0 0 1 1.987351,-1.950161 1.99756,1.9435719 0 0 1 2.007711,1.930317 l -1.997513,0.01323 z"
         style="opacity:1;fill:#c73c32;fill-opacity:1;stroke:none;stroke-width:2.7203784;stroke-linecap:round;stroke-linejoin:miter;stroke-miterlimit:4;stroke-dasharray:none;stroke-dashoffset:0;stroke-opacity:1;paint-order:markers fill stroke"
         transform="matrix(-0.9992663,0.03829961,0.03829961,0.9992663,0,0)" />
      <path
         id="path827-0-9-1"
         d="m -58.244288,66.867256 a 1.99756,1.9435719 0 0 1 -1.994161,1.943569 1.99756,1.9435719 0 0 1 -2.000947,-1.936954 1.99756,1.9435719 0 0 1 1.98735,-1.950161 1.99756,1.9435719 0 0 1 2.007712,1.930317 l -1.997514,0.01323 z"
         style="opacity:1;fill:#2cc0d4;fill-opacity:1;stroke:none;stroke-width:2.7203784;stroke-linecap:round;stroke-linejoin:miter;stroke-miterlimit:4;stroke-dasharray:none;stroke-dashoffset:0;stroke-opacity:1;paint-order:markers fill stroke"
         transform="matrix(-0.94358871,0.33111983,0.33111983,0.94358871,0,0)" />
      <path
         id="path827-0-6"
         d="m -78.367903,51.544052 a 1.99756,1.9435719 0 0 1 -1.994161,1.943569 1.99756,1.9435719 0 0 1 -2.000948,-1.936954 1.99756,1.9435719 0 0 1 1.987351,-1.950161 1.99756,1.9435719 0 0 1 2.007711,1.930317 l -1.997513,0.01323 z"
         style="opacity:1;fill:#8bc44c;fill-opacity:1;stroke:none;stroke-width:2.7203784;stroke-linecap:round;stroke-linejoin:miter;stroke-miterlimit:4;stroke-dasharray:none;stroke-dashoffset:0;stroke-opacity:1;paint-order:markers fill stroke"
         transform="matrix(-0.99776859,0.06676701,0.06676701,0.99776859,0,0)" />
      <path
         id="path827-0-5-9"
         d="m -83.791541,42.794262 a 1.99756,1.9435719 0 0 1 -1.99416,1.943569 1.99756,1.9435719 0 0 1 -2.000948,-1.936954 1.99756,1.9435719 0 0 1 1.987351,-1.950162 1.99756,1.9435719 0 0 1 2.007711,1.930318 l -1.997514,0.01323 z"
         style="opacity:1;fill:#eee935;fill-opacity:1;stroke:none;stroke-width:2.7203784;stroke-linecap:round;stroke-linejoin:miter;stroke-miterlimit:4;stroke-dasharray:none;stroke-dashoffset:0;stroke-opacity:1;paint-order:markers fill stroke"
         transform="matrix(-0.99988252,0.01532768,0.01532768,0.99988252,0,0)" />
    </g>
  </g>
</svg>
